# Object Export From Tinkercad Server 2015

mtllib obj.mtl

o obj_0
v 34 		41 		70
v 34 		57 		70
v 34 		41 		-10
v 34 		57 		-10
v -32 		57 		70
v -32 		41 		70
v -32 		57 		-10
v -32 		41 		-10
# 8 vertices

g group_0_12568524

usemtl color_12568524
s 0

f 1 	3 	2
f 3 	4 	2
f 5 	7 	6
f 7 	8 	6
f 5 	6 	2
f 6 	1 	2
f 8 	7 	3
f 7 	4 	3
f 6 	8 	1
f 8 	3 	1
f 2 	4 	5
f 4 	7 	5
# 12 faces

 #end of obj_0

o obj_1
v 80 		11 		20
v 80 		80 		20
v 80 		11 		0
v 80 		80 		0
v 45 		80 		20
v 45 		11 		20
v 45 		80 		0
v 45 		11 		0
# 8 vertices

g group_1_14860437

usemtl color_14860437
s 0

f 9 	11 	10
f 11 	12 	10
f 13 	15 	14
f 15 	16 	14
f 13 	14 	10
f 14 	9 	10
f 16 	15 	11
f 15 	12 	11
f 14 	16 	9
f 16 	11 	9
f 10 	12 	13
f 12 	15 	13
# 12 faces

 #end of obj_1

o obj_2
v -53 		10 		30
v -53 		62 		30
v -53 		10 		-10
v -53 		62 		-10
v -92 		62 		30
v -92 		10 		30
v -92 		62 		-10
v -92 		10 		-10
# 8 vertices

g group_2_15277357

usemtl color_15277357
s 0

f 17 	19 	18
f 19 	20 	18
f 21 	23 	22
f 23 	24 	22
f 21 	22 	18
f 22 	17 	18
f 24 	23 	19
f 23 	20 	19
f 22 	24 	17
f 24 	19 	17
f 18 	20 	21
f 20 	23 	21
# 12 faces

 #end of obj_2

o obj_3
v -45 		-17 		30
v -45 		-1 		30
v -45 		-17 		-10
v -45 		-1 		-10
v -95 		-1 		30
v -95 		-17 		30
v -95 		-1 		-10
v -95 		-17 		-10
# 8 vertices

g group_3_16448250

usemtl color_16448250
s 0

f 25 	27 	26
f 27 	28 	26
f 29 	31 	30
f 31 	32 	30
f 29 	30 	26
f 30 	25 	26
f 32 	31 	27
f 31 	28 	27
f 30 	32 	25
f 32 	27 	25
f 26 	28 	29
f 28 	31 	29
# 12 faces

 #end of obj_3

o obj_4
v -45 		-46 		25
v -45 		-26 		25
v -45 		-46 		-15
v -45 		-26 		-15
v -95 		-26 		25
v -95 		-46 		25
v -95 		-26 		-15
v -95 		-46 		-15
# 8 vertices

g group_4_16448250

usemtl color_16448250
s 0

f 33 	35 	34
f 35 	36 	34
f 37 	39 	38
f 39 	40 	38
f 37 	38 	34
f 38 	33 	34
f 40 	39 	35
f 39 	36 	35
f 38 	40 	33
f 40 	35 	33
f 34 	36 	37
f 36 	39 	37
# 12 faces

 #end of obj_4

o obj_5
v 0.6526 		6.0428 		0
v 0 		6 		0
v 0 		11 		0
v 1.2941 		6.1704 		0
v 1.9134 		6.3806 		0
v 2.5 		6.6699 		0
v 3.0438 		7.0332 		0
v 3.5355 		7.4645 		0
v 3.9668 		7.9562 		0
v 4.3301 		8.5 		0
v 4.6194 		9.0866 		0
v 4.8296 		9.7059 		0
v 4.9572 		10.3474 		0
v 5 		11 		0
v 4.9572 		11.6526 		0
v 4.8296 		12.2941 		0
v 4.6194 		12.9134 		0
v 4.3301 		13.5 		0
v 3.9668 		14.0438 		0
v 3.5355 		14.5355 		0
v 3.0438 		14.9668 		0
v 2.5 		15.3301 		0
v 1.9134 		15.6194 		0
v 1.2941 		15.8296 		0
v 0.6526 		15.9572 		0
v 0 		16 		0
v -0.6526 		15.9572 		0
v -1.2941 		15.8296 		0
v -1.9134 		15.6194 		0
v -2.5 		15.3301 		0
v -3.0438 		14.9668 		0
v -3.5355 		14.5355 		0
v -3.9668 		14.0438 		0
v -4.3301 		13.5 		0
v -4.6194 		12.9134 		0
v -4.8296 		12.2941 		0
v -4.9572 		11.6526 		0
v -5 		11 		0
v -4.9572 		10.3474 		0
v -4.8296 		9.7059 		0
v -4.6194 		9.0866 		0
v -4.3301 		8.5 		0
v -3.9668 		7.9562 		0
v -3.5355 		7.4645 		0
v -3.0438 		7.0332 		0
v -2.5 		6.6699 		0
v -1.9134 		6.3806 		0
v -1.2941 		6.1704 		0
v -0.6526 		6.0428 		0
v 0 		6 		0.5
v 0.6526 		6.0428 		0.5
v 0 		11 		0.5
v 1.2941 		6.1704 		0.5
v 1.9134 		6.3806 		0.5
v 2.5 		6.6699 		0.5
v 3.0438 		7.0332 		0.5
v 3.5355 		7.4645 		0.5
v 3.9668 		7.9562 		0.5
v 4.3301 		8.5 		0.5
v 4.6194 		9.0866 		0.5
v 4.8296 		9.7059 		0.5
v 4.9572 		10.3474 		0.5
v 5 		11 		0.5
v 4.9572 		11.6526 		0.5
v 4.8296 		12.2941 		0.5
v 4.6194 		12.9134 		0.5
v 4.3301 		13.5 		0.5
v 3.9668 		14.0438 		0.5
v 3.5355 		14.5355 		0.5
v 3.0438 		14.9668 		0.5
v 2.5 		15.3301 		0.5
v 1.9134 		15.6194 		0.5
v 1.2941 		15.8296 		0.5
v 0.6526 		15.9572 		0.5
v 0 		16 		0.5
v -0.6526 		15.9572 		0.5
v -1.2941 		15.8296 		0.5
v -1.9134 		15.6194 		0.5
v -2.5 		15.3301 		0.5
v -3.0438 		14.9668 		0.5
v -3.5355 		14.5355 		0.5
v -3.9668 		14.0438 		0.5
v -4.3301 		13.5 		0.5
v -4.6194 		12.9134 		0.5
v -4.8296 		12.2941 		0.5
v -4.9572 		11.6526 		0.5
v -5 		11 		0.5
v -4.9572 		10.3474 		0.5
v -4.8296 		9.7059 		0.5
v -4.6194 		9.0866 		0.5
v -4.3301 		8.5 		0.5
v -3.9668 		7.9562 		0.5
v -3.5355 		7.4645 		0.5
v -3.0438 		7.0332 		0.5
v -2.5 		6.6699 		0.5
v -1.9134 		6.3806 		0.5
v -1.2941 		6.1704 		0.5
v -0.6526 		6.0428 		0.5
# 98 vertices

g group_5_16089887

usemtl color_16089887
s 0

f 41 	42 	43
f 44 	41 	43
f 45 	44 	43
f 46 	45 	43
f 47 	46 	43
f 48 	47 	43
f 49 	48 	43
f 50 	49 	43
f 51 	50 	43
f 52 	51 	43
f 53 	52 	43
f 54 	53 	43
f 55 	54 	43
f 56 	55 	43
f 57 	56 	43
f 58 	57 	43
f 59 	58 	43
f 60 	59 	43
f 61 	60 	43
f 62 	61 	43
f 63 	62 	43
f 64 	63 	43
f 65 	64 	43
f 66 	65 	43
f 67 	66 	43
f 68 	67 	43
f 69 	68 	43
f 70 	69 	43
f 71 	70 	43
f 72 	71 	43
f 73 	72 	43
f 74 	73 	43
f 75 	74 	43
f 76 	75 	43
f 77 	76 	43
f 78 	77 	43
f 79 	78 	43
f 80 	79 	43
f 81 	80 	43
f 82 	81 	43
f 83 	82 	43
f 84 	83 	43
f 85 	84 	43
f 86 	85 	43
f 87 	86 	43
f 88 	87 	43
f 89 	88 	43
f 42 	89 	43
f 90 	91 	92
f 91 	93 	92
f 93 	94 	92
f 94 	95 	92
f 95 	96 	92
f 96 	97 	92
f 97 	98 	92
f 98 	99 	92
f 99 	100 	92
f 100 	101 	92
f 101 	102 	92
f 102 	103 	92
f 103 	104 	92
f 104 	105 	92
f 105 	106 	92
f 106 	107 	92
f 107 	108 	92
f 108 	109 	92
f 109 	110 	92
f 110 	111 	92
f 111 	112 	92
f 112 	113 	92
f 113 	114 	92
f 114 	115 	92
f 115 	116 	92
f 116 	117 	92
f 117 	118 	92
f 118 	119 	92
f 119 	120 	92
f 120 	121 	92
f 121 	122 	92
f 122 	123 	92
f 123 	124 	92
f 124 	125 	92
f 125 	126 	92
f 126 	127 	92
f 127 	128 	92
f 128 	129 	92
f 129 	130 	92
f 130 	131 	92
f 131 	132 	92
f 132 	133 	92
f 133 	134 	92
f 134 	135 	92
f 135 	136 	92
f 136 	137 	92
f 137 	138 	92
f 138 	90 	92
f 42 	41 	41
f 41 	44 	44
f 44 	45 	45
f 45 	46 	46
f 46 	47 	47
f 47 	48 	48
f 48 	49 	49
f 49 	50 	50
f 50 	51 	51
f 51 	52 	52
f 52 	53 	53
f 53 	54 	54
f 54 	55 	55
f 55 	56 	56
f 56 	57 	57
f 57 	58 	58
f 58 	59 	59
f 59 	60 	60
f 60 	61 	61
f 61 	62 	62
f 62 	63 	63
f 63 	64 	64
f 64 	65 	65
f 65 	66 	66
f 66 	67 	67
f 67 	68 	68
f 68 	69 	69
f 69 	70 	70
f 70 	71 	71
f 71 	72 	72
f 72 	73 	73
f 73 	74 	74
f 74 	75 	75
f 75 	76 	76
f 76 	77 	77
f 77 	78 	78
f 78 	79 	79
f 79 	80 	80
f 80 	81 	81
f 81 	82 	82
f 82 	83 	83
f 83 	84 	84
f 84 	85 	85
f 85 	86 	86
f 86 	87 	87
f 87 	88 	88
f 88 	89 	89
f 89 	42 	42
f 42 	41 	91
f 42 	91 	90
f 41 	44 	93
f 41 	93 	91
f 44 	45 	94
f 44 	94 	93
f 45 	46 	95
f 45 	95 	94
f 46 	47 	96
f 46 	96 	95
f 47 	48 	97
f 47 	97 	96
f 48 	49 	98
f 48 	98 	97
f 49 	50 	99
f 49 	99 	98
f 50 	51 	100
f 50 	100 	99
f 51 	52 	101
f 51 	101 	100
f 52 	53 	102
f 52 	102 	101
f 53 	54 	103
f 53 	103 	102
f 54 	55 	104
f 54 	104 	103
f 55 	56 	105
f 55 	105 	104
f 56 	57 	106
f 56 	106 	105
f 57 	58 	107
f 57 	107 	106
f 58 	59 	108
f 58 	108 	107
f 59 	60 	109
f 59 	109 	108
f 60 	61 	110
f 60 	110 	109
f 61 	62 	111
f 61 	111 	110
f 62 	63 	112
f 62 	112 	111
f 63 	64 	113
f 63 	113 	112
f 64 	65 	114
f 64 	114 	113
f 65 	66 	115
f 65 	115 	114
f 66 	67 	116
f 66 	116 	115
f 67 	68 	117
f 67 	117 	116
f 68 	69 	118
f 68 	118 	117
f 69 	70 	119
f 69 	119 	118
f 70 	71 	120
f 70 	120 	119
f 71 	72 	121
f 71 	121 	120
f 72 	73 	122
f 72 	122 	121
f 73 	74 	123
f 73 	123 	122
f 74 	75 	124
f 74 	124 	123
f 75 	76 	125
f 75 	125 	124
f 76 	77 	126
f 76 	126 	125
f 77 	78 	127
f 77 	127 	126
f 78 	79 	128
f 78 	128 	127
f 79 	80 	129
f 79 	129 	128
f 80 	81 	130
f 80 	130 	129
f 81 	82 	131
f 81 	131 	130
f 82 	83 	132
f 82 	132 	131
f 83 	84 	133
f 83 	133 	132
f 84 	85 	134
f 84 	134 	133
f 85 	86 	135
f 85 	135 	134
f 86 	87 	136
f 86 	136 	135
f 87 	88 	137
f 87 	137 	136
f 88 	89 	138
f 88 	138 	137
f 89 	42 	90
f 89 	90 	138
f 90 	91 	91
f 91 	93 	93
f 93 	94 	94
f 94 	95 	95
f 95 	96 	96
f 96 	97 	97
f 97 	98 	98
f 98 	99 	99
f 99 	100 	100
f 100 	101 	101
f 101 	102 	102
f 102 	103 	103
f 103 	104 	104
f 104 	105 	105
f 105 	106 	106
f 106 	107 	107
f 107 	108 	108
f 108 	109 	109
f 109 	110 	110
f 110 	111 	111
f 111 	112 	112
f 112 	113 	113
f 113 	114 	114
f 114 	115 	115
f 115 	116 	116
f 116 	117 	117
f 117 	118 	118
f 118 	119 	119
f 119 	120 	120
f 120 	121 	121
f 121 	122 	122
f 122 	123 	123
f 123 	124 	124
f 124 	125 	125
f 125 	126 	126
f 126 	127 	127
f 127 	128 	128
f 128 	129 	129
f 129 	130 	130
f 130 	131 	131
f 131 	132 	132
f 132 	133 	133
f 133 	134 	134
f 134 	135 	135
f 135 	136 	136
f 136 	137 	137
f 137 	138 	138
f 138 	90 	90
# 288 faces

 #end of obj_5

o obj_6
v 0 		11 		15
v 0 		7 		0
v 0.5221 		7.0342 		0
v 1.0353 		7.1363 		0
v 1.5307 		7.3045 		0
v 2 		7.5359 		0
v 2.435 		7.8266 		0
v 2.8284 		8.1716 		0
v 3.1734 		8.565 		0
v 3.4641 		9 		0
v 3.6955 		9.4693 		0
v 3.8637 		9.9647 		0
v 3.9658 		10.4779 		0
v 4 		11 		0
v 3.9658 		11.5221 		0
v 3.8637 		12.0353 		0
v 3.6955 		12.5307 		0
v 3.4641 		13 		0
v 3.1734 		13.435 		0
v 2.8284 		13.8284 		0
v 2.435 		14.1734 		0
v 2 		14.4641 		0
v 1.5307 		14.6955 		0
v 1.0353 		14.8637 		0
v 0.5221 		14.9658 		0
v 0 		15 		0
v -0.5221 		14.9658 		0
v -1.0353 		14.8637 		0
v -1.5307 		14.6955 		0
v -2 		14.4641 		0
v -2.435 		14.1734 		0
v -2.8284 		13.8284 		0
v -3.1734 		13.435 		0
v -3.4641 		13 		0
v -3.6955 		12.5307 		0
v -3.8637 		12.0353 		0
v -3.9658 		11.5221 		0
v -4 		11 		0
v -3.9658 		10.4779 		0
v -3.8637 		9.9647 		0
v -3.6955 		9.4693 		0
v -3.4641 		9 		0
v -3.1734 		8.565 		0
v -2.8284 		8.1716 		0
v -2.435 		7.8266 		0
v -2 		7.5359 		0
v -1.5307 		7.3045 		0
v -1.0353 		7.1363 		0
v -0.5221 		7.0342 		0
v 0 		11 		0
# 50 vertices

g group_6_8273816

usemtl color_8273816
s 0

f 140 	141 	139
f 141 	142 	139
f 142 	143 	139
f 143 	144 	139
f 144 	145 	139
f 145 	146 	139
f 146 	147 	139
f 147 	148 	139
f 148 	149 	139
f 149 	150 	139
f 150 	151 	139
f 151 	152 	139
f 152 	153 	139
f 153 	154 	139
f 154 	155 	139
f 155 	156 	139
f 156 	157 	139
f 157 	158 	139
f 158 	159 	139
f 159 	160 	139
f 160 	161 	139
f 161 	162 	139
f 162 	163 	139
f 163 	164 	139
f 164 	165 	139
f 165 	166 	139
f 166 	167 	139
f 167 	168 	139
f 168 	169 	139
f 169 	170 	139
f 170 	171 	139
f 171 	172 	139
f 172 	173 	139
f 173 	174 	139
f 174 	175 	139
f 175 	176 	139
f 176 	177 	139
f 177 	178 	139
f 178 	179 	139
f 179 	180 	139
f 180 	181 	139
f 181 	182 	139
f 182 	183 	139
f 183 	184 	139
f 184 	185 	139
f 185 	186 	139
f 186 	187 	139
f 187 	140 	139
f 141 	140 	188
f 142 	141 	188
f 143 	142 	188
f 144 	143 	188
f 145 	144 	188
f 146 	145 	188
f 147 	146 	188
f 148 	147 	188
f 149 	148 	188
f 150 	149 	188
f 151 	150 	188
f 152 	151 	188
f 153 	152 	188
f 154 	153 	188
f 155 	154 	188
f 156 	155 	188
f 157 	156 	188
f 158 	157 	188
f 159 	158 	188
f 160 	159 	188
f 161 	160 	188
f 162 	161 	188
f 163 	162 	188
f 164 	163 	188
f 165 	164 	188
f 166 	165 	188
f 167 	166 	188
f 168 	167 	188
f 169 	168 	188
f 170 	169 	188
f 171 	170 	188
f 172 	171 	188
f 173 	172 	188
f 174 	173 	188
f 175 	174 	188
f 176 	175 	188
f 177 	176 	188
f 178 	177 	188
f 179 	178 	188
f 180 	179 	188
f 181 	180 	188
f 182 	181 	188
f 183 	182 	188
f 184 	183 	188
f 185 	184 	188
f 186 	185 	188
f 187 	186 	188
f 140 	187 	188
# 96 faces

 #end of obj_6

o obj_7
v 90 		-67 		0.1
v 90 		-1 		0.1
v 90 		-67 		0
v 90 		-1 		0
v -11 		-1 		0.1
v -11 		-67 		0.1
v -11 		-1 		0
v -11 		-67 		0
# 8 vertices

g group_7_3888547

usemtl color_3888547
s 0

f 189 	191 	190
f 191 	192 	190
f 193 	195 	194
f 195 	196 	194
f 193 	194 	190
f 194 	189 	190
f 196 	195 	191
f 195 	192 	191
f 194 	196 	189
f 196 	191 	189
f 190 	192 	193
f 192 	195 	193
# 12 faces

 #end of obj_7

o obj_8
v 81 		-96 		0.1
v 81 		-70 		0.1
v 81 		-96 		0
v 81 		-70 		0
v -2 		-70 		0.1
v -2 		-96 		0.1
v -2 		-70 		0
v -2 		-96 		0
# 8 vertices

g group_8_8768998

usemtl color_8768998
s 0

f 197 	199 	198
f 199 	200 	198
f 201 	203 	202
f 203 	204 	202
f 201 	202 	198
f 202 	197 	198
f 204 	203 	199
f 203 	200 	199
f 202 	204 	197
f 204 	199 	197
f 198 	200 	201
f 200 	203 	201
# 12 faces

 #end of obj_8

o obj_9
v -13 		-57 		0.1
v -13 		-9 		0.1
v -13 		-57 		0
v -13 		-9 		0
v -35 		-9 		0.1
v -35 		-57 		0.1
v -35 		-9 		0
v -35 		-57 		0
# 8 vertices

g group_9_8768998

usemtl color_8768998
s 0

f 205 	207 	206
f 207 	208 	206
f 209 	211 	210
f 211 	212 	210
f 209 	210 	206
f 210 	205 	206
f 212 	211 	207
f 211 	208 	207
f 210 	212 	205
f 212 	207 	205
f 206 	208 	209
f 208 	211 	209
# 12 faces

 #end of obj_9

